<svg width="1408" height="134" viewBox="0 0 1408 134" fill="none" xmlns="http://www.w3.org/2000/svg">
<path d="M101.661 52.5297C101.661 63.1909 99.6006 72.5255 95.4799 80.5335C91.4076 88.5415 85.5416 94.6922 77.8819 98.9856C70.2222 103.279 61.1808 105.426 50.7578 105.426C40.2378 105.426 31.1479 103.303 23.4882 99.058C15.877 94.8128 10.0594 88.6862 6.03567 80.6782C2.01189 72.622 0 63.2392 0 52.5297C0 36.2243 4.48433 23.4887 13.453 14.323C22.4216 5.10895 34.9051 0.501953 50.9032 0.501953C61.3262 0.501953 70.3676 2.57631 78.0273 6.72502C85.6871 10.8255 91.5288 16.8074 95.5526 24.6706C99.6248 32.5339 101.661 41.8202 101.661 52.5297ZM87.4808 52.5297C87.4808 39.8424 84.2812 29.8806 77.8819 22.6445C71.5311 15.4084 62.5382 11.7903 50.9032 11.7903C39.1712 11.7903 30.1056 15.3601 23.7063 22.4998C17.3071 29.6394 14.1075 39.6494 14.1075 52.5297C14.1075 65.3135 17.3313 75.4682 23.7791 82.9938C30.2753 90.4711 39.2682 94.2098 50.7578 94.2098C62.5867 94.2098 71.6523 90.5917 77.9546 83.3556C84.3054 76.0712 87.4808 65.7959 87.4808 52.5297Z" fill="white"/>
<path d="M200.375 74.0934C200.375 83.1144 197.248 90.3505 190.995 95.8017C184.741 101.253 176.112 103.979 165.107 103.979H122.566V2.02154H189.904V13.3099H136.455V45.1488H164.234C175.675 45.1488 184.547 47.6815 190.849 52.7468C197.2 57.8121 200.375 64.9276 200.375 74.0934ZM186.413 74.2381C186.413 68.4009 184.426 63.9387 180.45 60.8512C176.475 57.7156 170.512 56.1478 162.562 56.1478H136.455V93.052H163.143C171.094 93.052 176.96 91.4118 180.741 88.1314C184.523 84.8511 186.413 80.2199 186.413 74.2381Z" fill="white"/>
<path d="M343.303 92.4008V133.502H330.213V103.979H221.79V2.02154H235.679V92.4008H269.639V2.02154H283.164V92.4008H317.051V2.02154H330.577V92.4008H343.303Z" fill="white"/>
<path d="M362.899 103.979V2.02154H440.636V13.3099H376.788V46.0172H436.272V57.1608H376.788V92.6902H443.617V103.979H362.899Z" fill="white"/>
<path d="M509.099 11.7903C497.755 11.7903 488.932 15.4325 482.629 22.7169C476.327 29.953 473.176 39.8906 473.176 52.5297C473.176 65.0241 476.448 75.0823 482.993 82.7043C489.586 90.2782 498.482 94.0651 509.681 94.0651C524.031 94.0651 534.817 86.9978 542.041 72.8632L553.385 78.5074C549.167 87.2872 543.228 93.9686 535.569 98.5515C527.957 103.134 519.11 105.426 509.026 105.426C498.7 105.426 489.756 103.303 482.193 99.058C474.679 94.7645 468.934 88.6621 464.959 80.7506C461.032 72.7908 459.068 63.3839 459.068 52.5297C459.068 36.2725 463.48 23.537 472.303 14.323C481.126 5.10895 493.343 0.501953 508.954 0.501953C519.861 0.501953 528.975 2.62455 536.296 6.86974C543.616 11.1149 548.997 17.4104 552.439 25.756L539.277 30.0977C536.902 24.1641 533.072 19.6294 527.788 16.4938C522.552 13.3581 516.322 11.7903 509.099 11.7903Z" fill="white"/>
<path d="M608.031 13.3099V103.979H594.215V13.3099H559.019V2.02154H643.227V13.3099H608.031Z" fill="white"/>
<path d="M739.688 75.2511C739.688 84.3204 736.367 91.3877 729.725 96.453C723.083 101.47 713.848 103.979 702.019 103.979H660.424V2.02154H697.656C721.702 2.02154 733.725 10.2707 733.725 26.7691C733.725 32.7992 732.028 37.8645 728.634 41.965C725.241 46.0654 720.441 48.8152 714.236 50.2141C722.38 51.179 728.659 53.9046 733.07 58.391C737.482 62.8291 739.688 68.4492 739.688 75.2511ZM719.763 28.4334C719.763 22.9339 717.872 19.0023 714.091 16.6385C710.309 14.2747 704.831 13.0928 697.656 13.0928H674.313V45.3659H697.656C705.073 45.3659 710.6 43.9911 714.236 41.2413C717.92 38.4434 719.763 34.1741 719.763 28.4334ZM725.653 74.1657C725.653 62.1537 717.169 56.1478 700.201 56.1478H674.313V92.9073H701.292C709.776 92.9073 715.957 91.3395 719.835 88.2038C723.714 85.0681 725.653 80.3888 725.653 74.1657Z" fill="white"/>
<path d="M852.8 52.5297C852.8 63.1909 850.74 72.5255 846.619 80.5335C842.547 88.5415 836.681 94.6922 829.021 98.9856C821.362 103.279 812.32 105.426 801.897 105.426C791.377 105.426 782.287 103.303 774.628 99.058C767.016 94.8128 761.199 88.6862 757.175 80.6782C753.151 72.622 751.139 63.2392 751.139 52.5297C751.139 36.2243 755.624 23.4887 764.592 14.323C773.561 5.10895 786.044 0.501953 802.043 0.501953C812.466 0.501953 821.507 2.57631 829.167 6.72502C836.826 10.8255 842.668 16.8074 846.692 24.6706C850.764 32.5339 852.8 41.8202 852.8 52.5297ZM838.62 52.5297C838.62 39.8424 835.421 29.8806 829.021 22.6445C822.67 15.4084 813.678 11.7903 802.043 11.7903C790.311 11.7903 781.245 15.3601 774.846 22.4998C768.446 29.6394 765.247 39.6494 765.247 52.5297C765.247 65.3135 768.471 75.4682 774.918 82.9938C781.415 90.4711 790.407 94.2098 801.897 94.2098C813.726 94.2098 822.792 90.5917 829.094 83.3556C835.445 76.0712 838.62 65.7959 838.62 52.5297Z" fill="white"/>
<path d="M985.8 103.979V13.6717H930.388V103.979H916.499V2.02154H999.689V103.979H985.8Z" fill="white"/>
<path d="M1085.02 13.5993H1054.63L1051.06 40.2283C1048.59 59.4281 1046.19 73.2491 1043.86 81.6913C1041.59 90.1334 1038.7 96.1635 1035.21 99.7816C1031.72 103.351 1026.82 105.136 1020.52 105.136C1017.71 105.136 1015.63 104.895 1014.27 104.413V93.4138C1015.19 93.7515 1016.55 93.9203 1018.34 93.9203C1020.91 93.9203 1022.99 93.1485 1024.59 91.6048C1026.24 90.0128 1027.77 87.4078 1029.18 83.7898C1030.58 80.1235 1031.99 74.7205 1033.39 67.5808C1034.8 60.393 1036.2 51.5649 1037.61 41.0966C1039.02 30.5801 1040.74 17.5551 1042.77 2.02154H1098.55V103.979H1085.02V13.5993Z" fill="white"/>
<path d="M1124.4 103.979V2.02154H1202.14V13.3099H1138.29V46.0172H1197.77V57.1608H1138.29V92.6902H1205.12V103.979H1124.4Z" fill="white"/>
<path d="M1270.6 11.7903C1259.26 11.7903 1250.43 15.4325 1244.13 22.7169C1237.83 29.953 1234.68 39.8906 1234.68 52.5297C1234.68 65.0241 1237.95 75.0823 1244.49 82.7043C1251.09 90.2782 1259.98 94.0651 1271.18 94.0651C1285.53 94.0651 1296.32 86.9978 1303.54 72.8632L1314.89 78.5074C1310.67 87.2872 1304.73 93.9686 1297.07 98.5515C1289.46 103.134 1280.61 105.426 1270.53 105.426C1260.2 105.426 1251.26 103.303 1243.69 99.058C1236.18 94.7645 1230.43 88.6621 1226.46 80.7506C1222.53 72.7908 1220.57 63.3839 1220.57 52.5297C1220.57 36.2725 1224.98 23.537 1233.8 14.323C1242.63 5.10895 1254.84 0.501953 1270.45 0.501953C1281.36 0.501953 1290.48 2.62455 1297.8 6.86974C1305.12 11.1149 1310.5 17.4104 1313.94 25.756L1300.78 30.0977C1298.4 24.1641 1294.57 19.6294 1289.29 16.4938C1284.05 13.3581 1277.82 11.7903 1270.6 11.7903Z" fill="white"/>
<path d="M1334.34 2.02154H1348.23V46.8132C1351.86 46.8132 1354.77 46.3307 1356.95 45.3659C1359.13 44.3529 1361.41 42.5197 1363.79 39.8665C1366.16 37.165 1369.94 31.9067 1375.13 24.0917L1390.04 2.02154H1404.58L1384 31.6897C1377.65 40.8072 1373.31 46.2101 1370.99 47.8986L1408 103.979H1391.86L1360.81 54.5558C1359.59 55.1347 1357.65 55.7377 1354.99 56.3648C1352.37 56.992 1350.12 57.3055 1348.23 57.3055V103.979H1334.34V2.02154Z" fill="white"/>
</svg>
