<svg width="43" height="24" viewBox="0 0 43 24" fill="none" xmlns="http://www.w3.org/2000/svg">
<path d="M41.3135 9.04906C35.9985 8.81482 36.9773 7.17911 33.8686 8.72139C30.7598 10.2637 24.5488 14.047 27.0995 8.12527C29.6502 2.20221 17.3252 18.2278 20.4055 9.56228C23.487 0.898116 -10.1046 33.8401 3.08138 19.7279C3.08138 19.7279 9.68992 12.2942 4.9847 11.2283C0.27949 10.1623 4.18971 4.49327 7.97434 2.11273C11.7577 -0.26781 14.0494 -0.33887 15.2665 0.450695C16.1664 1.03497 16.1055 4.03532 14.8146 7.11199C16.2247 5.58024 18.1319 3.76687 20.5725 1.85875C29.1776 -4.86571 16.6623 9.83468 19.9821 7.52783C23.3032 5.22099 24.9178 5.31179 26.6761 6.09082C28.4344 6.86855 26.3796 2.21669 32.3692 2.03772C38.3601 1.85875 32.0131 5.825 32.0131 5.825C36.4309 5.14598 38.5595 3.07863 40.9911 3.66949C43.4227 4.26035 37.2479 6.32506 37.2479 6.32506C37.2479 6.32506 46.6299 9.2833 41.3135 9.04906Z" fill="white"/>
</svg>
